<svg width="158" height="32" viewBox="0 0 158 32" xmlns="http://www.w3.org/2000/svg">
  <g clip-path="url(#clip0_2582_3191)">
    <mask id="path-1-outside-1_2582_3191" maskUnits="userSpaceOnUse" x="-1" y="2" width="160"
      height="29" fill="black">
      <rect fill="white" x="-1" y="2" width="160" height="29" />
      <path
        d="M23.2273 13.4545L16.8182 13.4545C16.7727 12.9242 16.6515 12.4432 16.4545 12.0114C16.2652 11.5795 16 11.2083 15.6591 10.8977C15.3258 10.5795 14.9205 10.3371 14.4432 10.1705C13.9659 9.99621 13.4242 9.90909 12.8182 9.90909C11.7576 9.90909 10.8598 10.1667 10.125 10.6818C9.39773 11.197 8.8447 11.9356 8.46591 12.8977C8.0947 13.8598 7.90909 15.0152 7.90909 16.3636C7.90909 17.7879 8.09848 18.9811 8.47727 19.9432C8.86364 20.8977 9.42045 21.6174 10.1477 22.1023C10.875 22.5795 11.75 22.8182 12.7727 22.8182C13.3561 22.8182 13.8788 22.7462 14.3409 22.6023C14.803 22.4508 15.2045 22.2348 15.5455 21.9545C15.8864 21.6742 16.1629 21.3371 16.375 20.9432C16.5947 20.5417 16.7424 20.0909 16.8182 19.5909L23.2273 19.6364C23.1515 20.6212 22.875 21.625 22.3977 22.6477C21.9205 23.6629 21.2424 24.6023 20.3636 25.4659C19.4924 26.322 18.4129 27.0114 17.125 27.5341C15.8371 28.0568 14.3409 28.3182 12.6364 28.3182C10.5 28.3182 8.58333 27.8598 6.88636 26.9432C5.19697 26.0265 3.85985 24.678 2.875 22.8977C1.89773 21.1174 1.40909 18.9394 1.40909 16.3636C1.40909 13.7727 1.90909 11.5909 2.90909 9.81818C3.90909 8.03788 5.25758 6.69318 6.95455 5.78409C8.65152 4.86742 10.5455 4.40909 12.6364 4.40909C14.1061 4.40909 15.4583 4.60985 16.6932 5.01136C17.928 5.41288 19.0114 6 19.9432 6.77273C20.875 7.53788 21.625 8.48106 22.1932 9.60227C22.7614 10.7235 23.1061 12.0076 23.2273 13.4545ZM26.0937 28L26.0937 4.72727L36.1392 4.72727C37.8665 4.72727 39.3778 5.04167 40.6733 5.67045C41.9688 6.29924 42.9763 7.20455 43.696 8.38636C44.4157 9.56818 44.7756 10.9848 44.7756 12.6364C44.7756 14.303 44.4044 15.7083 43.6619 16.8523C42.9271 17.9962 41.893 18.8598 40.5597 19.4432C39.2339 20.0265 37.6847 20.3182 35.9119 20.3182L29.9119 20.3182L29.9119 15.4091L34.6392 15.4091C35.3816 15.4091 36.0142 15.3182 36.5369 15.1364C37.0672 14.947 37.4725 14.6477 37.7528 14.2386C38.0407 13.8295 38.1847 13.2955 38.1847 12.6364C38.1847 11.9697 38.0407 11.428 37.7528 11.0114C37.4725 10.5871 37.0672 10.2765 36.5369 10.0795C36.0142 9.875 35.3816 9.77273 34.6392 9.77273L32.4119 9.77273L32.4119 28L26.0937 28ZM39.7301 17.3182L45.5483 28L38.6847 28L33.0028 17.3182L39.7301 17.3182ZM45.4205 4.72727L52.4659 4.72727L57.0114 14.1818L57.1932 14.1818L61.7386 4.72727L68.7841 4.72727L60.2386 20.6818L60.2386 28L53.9659 28L53.9659 20.6818L45.4205 4.72727ZM70.8437 28L70.8437 4.72727L80.8892 4.72727C82.6165 4.72727 84.1278 5.06818 85.4233 5.75C86.7188 6.43182 87.7263 7.39015 88.446 8.625C89.1657 9.85985 89.5256 11.303 89.5256 12.9545C89.5256 14.6212 89.1544 16.0644 88.4119 17.2841C87.6771 18.5038 86.643 19.4432 85.3097 20.1023C83.9839 20.7614 82.4347 21.0909 80.6619 21.0909L74.6619 21.0909L74.6619 16.1818L79.3892 16.1818C80.1316 16.1818 80.7642 16.053 81.2869 15.7955C81.8172 15.5303 82.2225 15.1553 82.5028 14.6705C82.7907 14.1856 82.9347 13.6136 82.9347 12.9545C82.9347 12.2879 82.7907 11.7197 82.5028 11.25C82.2225 10.7727 81.8172 10.4091 81.2869 10.1591C80.7642 9.90151 80.1316 9.77273 79.3892 9.77273L77.1619 9.77273L77.1619 28L70.8437 28ZM91.2074 9.81818L91.2074 4.72727L111.435 4.72727L111.435 9.81818L104.435 9.81818L104.435 28L98.2074 28L98.2074 9.81818L91.2074 9.81818ZM135.264 16.3636C135.264 18.9545 134.76 21.1402 133.753 22.9205C132.745 24.6932 131.385 26.0379 129.673 26.9545C127.961 27.8636 126.052 28.3182 123.946 28.3182C121.825 28.3182 119.908 27.8598 118.196 26.9432C116.491 26.0189 115.135 24.6705 114.128 22.8977C113.128 21.1174 112.628 18.9394 112.628 16.3636C112.628 13.7727 113.128 11.5909 114.128 9.81818C115.135 8.03788 116.491 6.69318 118.196 5.78409C119.908 4.86742 121.825 4.40909 123.946 4.40909C126.052 4.40909 127.961 4.86742 129.673 5.78409C131.385 6.69318 132.745 8.03788 133.753 9.81818C134.76 11.5909 135.264 13.7727 135.264 16.3636ZM128.764 16.3636C128.764 14.9697 128.579 13.7955 128.207 12.8409C127.844 11.8788 127.302 11.1515 126.582 10.6591C125.87 10.1591 124.991 9.90909 123.946 9.90909C122.901 9.90909 122.018 10.1591 121.298 10.6591C120.586 11.1515 120.045 11.8788 119.673 12.8409C119.31 13.7955 119.128 14.9697 119.128 16.3636C119.128 17.7576 119.31 18.9356 119.673 19.8977C120.045 20.8523 120.586 21.5795 121.298 22.0795C122.018 22.572 122.901 22.8182 123.946 22.8182C124.991 22.8182 125.87 22.572 126.582 22.0795C127.302 21.5795 127.844 20.8523 128.207 19.8977C128.579 18.9356 128.764 17.7576 128.764 16.3636ZM143.682 17.5909L143.682 9.20454L147.682 9.20454C148.341 9.20454 148.905 9.32197 149.375 9.55682C149.845 9.79167 150.201 10.1212 150.443 10.5455C150.693 10.9697 150.818 11.4697 150.818 12.0455C150.818 12.6288 150.689 13.125 150.432 13.5341C150.174 13.9432 149.807 14.2576 149.33 14.4773C148.852 14.6894 148.28 14.7955 147.614 14.7955L144.977 14.7955L144.977 13.0682L147.227 13.0682C147.591 13.0682 147.867 12.9811 148.057 12.8068C148.246 12.6326 148.341 12.3788 148.341 12.0455C148.341 11.6894 148.246 11.4242 148.057 11.25C147.867 11.0682 147.591 10.9773 147.227 10.9773L146.091 10.9773L146.091 17.5909L143.682 17.5909ZM149.227 13.7727L151.023 17.5909L148.386 17.5909L146.773 13.7727L149.227 13.7727ZM147.045 22.5909C145.788 22.5909 144.61 22.3561 143.511 21.8864C142.413 21.4167 141.447 20.7652 140.614 19.9318C139.78 19.0985 139.129 18.1326 138.659 17.0341C138.189 15.9356 137.955 14.7576 137.955 13.5C137.955 12.2424 138.189 11.0644 138.659 9.96591C139.129 8.86742 139.78 7.90152 140.614 7.06818C141.447 6.23485 142.413 5.58333 143.511 5.11364C144.61 4.64394 145.788 4.40909 147.045 4.40909C148.303 4.40909 149.481 4.64394 150.58 5.11364C151.678 5.58333 152.644 6.23485 153.477 7.06818C154.311 7.90152 154.962 8.86742 155.432 9.96591C155.902 11.0644 156.136 12.2424 156.136 13.5C156.136 14.7576 155.902 15.9356 155.432 17.0341C154.962 18.1326 154.311 19.0985 153.477 19.9318C152.644 20.7652 151.678 21.4167 150.58 21.8864C149.481 22.3561 148.303 22.5909 147.045 22.5909ZM147.045 20.0455C148.258 20.0455 149.356 19.7538 150.341 19.1705C151.333 18.5795 152.121 17.7879 152.705 16.7955C153.295 15.803 153.591 14.7045 153.591 13.5C153.591 12.2955 153.295 11.197 152.705 10.2045C152.121 9.21212 151.333 8.42424 150.341 7.84091C149.348 7.25 148.25 6.95454 147.045 6.95454C145.841 6.95454 144.742 7.25 143.75 7.84091C142.758 8.42424 141.966 9.21212 141.375 10.2045C140.792 11.197 140.5 12.2955 140.5 13.5C140.5 14.7045 140.792 15.803 141.375 16.7955C141.966 17.7803 142.758 18.5682 143.75 19.1591C144.742 19.75 145.841 20.0455 147.045 20.0455Z" />
    </mask>
    <path
      d="M23.2273 13.4545L23.2273 15.4545L25.4018 15.4545L25.2203 13.2876L23.2273 13.4545ZM16.8182 13.4545L14.8255 13.6253L14.9823 15.4545L16.8182 15.4545L16.8182 13.4545ZM16.4545 12.0114L14.623 12.8147L14.6288 12.8281L14.6349 12.8414L16.4545 12.0114ZM15.6591 10.8977L14.2781 12.3444L14.2949 12.3605L14.3121 12.3761L15.6591 10.8977ZM14.4432 10.1705L13.7573 12.0492L13.7705 12.054L13.7838 12.0586L14.4432 10.1705ZM10.125 10.6818L8.97693 9.04413L8.96897 9.04977L10.125 10.6818ZM8.46591 12.8977L6.6049 12.165L6.59998 12.1778L8.46591 12.8977ZM8.47727 19.9432L6.6163 20.6758L6.6198 20.6847L6.62338 20.6936L8.47727 19.9432ZM10.1477 22.1023L9.03833 23.7664L9.04436 23.7704L9.05042 23.7744L10.1477 22.1023ZM14.3409 22.6023L14.9357 24.5118L14.9499 24.5074L14.964 24.5027L14.3409 22.6023ZM15.5455 21.9545L16.8157 23.4994L16.8157 23.4994L15.5455 21.9545ZM16.375 20.9432L14.6204 19.9831L14.6141 19.995L16.375 20.9432ZM16.8182 19.5909L16.8324 17.591L15.1002 17.5787L14.8408 19.2913L16.8182 19.5909ZM23.2273 19.6364L25.2214 19.7898L25.3859 17.6516L23.2415 17.6364L23.2273 19.6364ZM22.3977 22.6477L24.2077 23.4987L24.2101 23.4935L22.3977 22.6477ZM20.3636 25.4659L21.7654 26.8925L21.7655 26.8924L20.3636 25.4659ZM17.125 27.5341L16.3728 25.6809L17.125 27.5341ZM6.88636 26.9432L5.93253 28.7011L5.93582 28.7029L6.88636 26.9432ZM2.875 22.8977L1.12177 23.8601L1.12493 23.8658L2.875 22.8977ZM2.90909 9.81818L4.65105 10.8008L4.65284 10.7976L2.90909 9.81818ZM6.95455 5.78409L7.89899 7.54706L7.90509 7.54377L6.95455 5.78409ZM16.6932 5.01136L17.3116 3.10938L17.3116 3.10938L16.6932 5.01136ZM19.9432 6.77273L18.6665 8.31226L18.674 8.3184L19.9432 6.77273ZM22.1932 9.60227L20.4092 10.5063L20.4092 10.5063L22.1932 9.60227ZM23.2273 11.4545L16.8182 11.4545L16.8182 15.4545L23.2273 15.4545L23.2273 11.4545ZM18.8109 13.2837C18.7482 12.5529 18.5769 11.8451 18.2742 11.1814L14.6349 12.8414C14.7261 13.0413 14.7972 13.2956 14.8255 13.6253L18.8109 13.2837ZM18.2861 11.208C17.9868 10.5257 17.5587 9.92285 17.0061 9.41933L14.3121 12.3761C14.4413 12.4938 14.5435 12.6334 14.623 12.8147L18.2861 11.208ZM17.04 9.45101C16.4811 8.91748 15.8227 8.53375 15.1025 8.28227L13.7838 12.0586C14.0182 12.1405 14.1704 12.2416 14.2781 12.3444L17.04 9.45101ZM15.1291 8.29174C14.3942 8.02346 13.6142 7.90909 12.8182 7.90909L12.8182 11.9091C13.2342 11.9091 13.5376 11.969 13.7573 12.0492L15.1291 8.29174ZM12.8182 7.90909C11.4233 7.90909 10.1059 8.25273 8.97694 9.04415L11.2731 12.3195C11.6138 12.0806 12.0918 11.9091 12.8182 11.9091L12.8182 7.90909ZM8.96897 9.04977C7.87592 9.824 7.10287 10.9003 6.60494 12.1651L10.3269 13.6304C10.5865 12.9709 10.9195 12.5699 11.281 12.3139L8.96897 9.04977ZM6.59998 12.1778C6.11753 13.4282 5.90909 14.8408 5.90909 16.3636L9.90909 16.3636C9.90909 15.1895 10.0719 14.2915 10.3318 13.6177L6.59998 12.1778ZM5.90909 16.3636C5.90909 17.9504 6.11808 19.4104 6.6163 20.6758L10.3382 19.2105C10.0789 18.5518 9.90909 17.6253 9.90909 16.3636L5.90909 16.3636ZM6.62338 20.6936C7.13302 21.9527 7.9206 23.0212 9.03833 23.7664L11.2571 20.4382C10.9203 20.2136 10.5943 19.8428 10.3312 19.1928L6.62338 20.6936ZM9.05042 23.7744C10.1575 24.5009 11.4299 24.8182 12.7727 24.8182L12.7727 20.8182C12.0701 20.8182 11.5925 20.6582 11.245 20.4302L9.05042 23.7744ZM12.7727 24.8182C13.5178 24.8182 14.2462 24.7265 14.9357 24.5118L13.7461 20.6928C13.5113 20.7659 13.1943 20.8182 12.7727 20.8182L12.7727 24.8182ZM14.964 24.5027C15.638 24.2818 16.2644 23.9527 16.8157 23.4994L14.2752 20.4097C14.1447 20.517 13.9681 20.6198 13.7178 20.7018L14.964 24.5027ZM16.8157 23.4994C17.3602 23.0517 17.8023 22.511 18.1359 21.8914L14.6141 19.995C14.5234 20.1633 14.4125 20.2968 14.2752 20.4097L16.8157 23.4994ZM18.1295 21.9032C18.4728 21.2759 18.6884 20.5978 18.7956 19.8905L14.8408 19.2913C14.7964 19.584 14.7166 19.8075 14.6205 19.9832L18.1295 21.9032ZM16.804 21.5909L23.2131 21.6363L23.2415 17.6364L16.8324 17.591L16.804 21.5909ZM21.2332 19.483C21.1783 20.1964 20.9752 20.9665 20.5854 21.802L24.2101 23.4935C24.7748 22.2835 25.1247 21.0461 25.2214 19.7898L21.2332 19.483ZM20.5878 21.7968C20.2208 22.5773 19.6881 23.3256 18.9618 24.0395L21.7655 26.8924C22.7967 25.8789 23.6201 24.7484 24.2077 23.4987L20.5878 21.7968ZM18.9619 24.0393C18.3012 24.6885 17.4516 25.2431 16.3728 25.6809L17.8772 29.3873C19.3742 28.7797 20.6836 27.9554 21.7654 26.8925L18.9619 24.0393ZM16.3728 25.6809C15.3713 26.0874 14.1397 26.3182 12.6364 26.3182L12.6364 30.3182C14.5421 30.3182 16.303 30.0262 17.8772 29.3873L16.3728 25.6809ZM12.6364 26.3182C10.7955 26.3182 9.21142 25.926 7.83691 25.1835L5.93582 28.7029C7.95524 29.7937 10.2045 30.3182 12.6364 30.3182L12.6364 26.3182ZM7.8402 25.1853C6.50609 24.4614 5.43658 23.3966 4.62507 21.9296L1.12493 23.8658C2.28311 25.9595 3.88785 27.5916 5.93253 28.7011L7.8402 25.1853ZM4.62822 21.9353C3.85063 20.5188 3.40909 18.6913 3.40909 16.3636L-0.590909 16.3636C-0.590909 19.1875 -0.0551777 21.7161 1.12178 23.8601L4.62822 21.9353ZM3.40909 16.3636C3.40909 14.0249 3.86034 12.2025 4.65105 10.8008L1.16713 8.83554C-0.0421625 10.9793 -0.590909 13.5206 -0.590909 16.3636L3.40909 16.3636ZM4.65284 10.7976C5.47824 9.32817 6.55829 8.26528 7.89899 7.54705L6.0101 4.02113C3.95686 5.12108 2.33994 6.74758 1.16535 8.83872L4.65284 10.7976ZM7.90509 7.54377C9.28587 6.7979 10.8487 6.40909 12.6364 6.40909L12.6364 2.40909C10.2422 2.40909 8.01716 2.93695 6.004 4.02441L7.90509 7.54377ZM12.6364 6.40909C13.9233 6.40909 15.064 6.5847 16.0747 6.91334L17.3116 3.10938C15.8527 2.63499 14.2888 2.40909 12.6364 2.40909L12.6364 6.40909ZM16.0747 6.91334C17.0869 7.24244 17.943 7.71226 18.6665 8.31224L21.2199 5.23321C20.0797 4.28774 18.7692 3.58332 17.3116 3.10938L16.0747 6.91334ZM18.674 8.3184C19.3825 8.90018 19.9608 9.62161 20.4092 10.5063L23.9772 8.69822C23.2892 7.34051 22.3675 6.17558 21.2124 5.22705L18.674 8.3184ZM20.4092 10.5063C20.8442 11.3648 21.1313 12.392 21.2343 13.6215L25.2203 13.2876C25.0809 11.6232 24.6785 10.0822 23.9772 8.69821L20.4092 10.5063ZM26.0937 28L24.0937 28L24.0937 30L26.0937 30L26.0937 28ZM26.0937 4.72727L26.0937 2.72727L24.0937 2.72727L24.0937 4.72727L26.0937 4.72727ZM40.6733 5.67045L39.8 7.46971L40.6733 5.67045ZM43.696 8.38636L45.4042 7.34612L45.4042 7.34612L43.696 8.38636ZM43.6619 16.8523L41.9843 15.7635L41.9792 15.7713L43.6619 16.8523ZM40.5597 19.4432L39.758 17.6109L39.7542 17.6126L40.5597 19.4432ZM29.9119 20.3182L27.9119 20.3182L27.9119 22.3182L29.9119 22.3182L29.9119 20.3182ZM29.9119 15.4091L29.9119 13.4091L27.9119 13.4091L27.9119 15.4091L29.9119 15.4091ZM36.5369 15.1364L37.194 17.0254L37.2018 17.0226L37.2096 17.0198L36.5369 15.1364ZM37.7528 14.2386L36.1172 13.0876L36.11 13.0979L36.103 13.1082L37.7528 14.2386ZM37.7528 11.0114L36.0842 12.1139L36.0956 12.1312L36.1074 12.1482L37.7528 11.0114ZM36.5369 10.0795L35.8081 11.942L35.8243 11.9484L35.8406 11.9544L36.5369 10.0795ZM32.4119 9.77273L32.4119 7.77273L30.4119 7.77273L30.4119 9.77273L32.4119 9.77273ZM32.4119 28L32.4119 30L34.4119 30L34.4119 28L32.4119 28ZM39.7301 17.3182L41.4865 16.3615L40.9182 15.3182L39.7301 15.3182L39.7301 17.3182ZM45.5483 28L45.5483 30L48.9151 30L47.3047 27.0433L45.5483 28ZM38.6847 28L36.9189 28.9392L37.4832 30L38.6847 30L38.6847 28ZM33.0028 17.3182L33.0028 15.3182L29.6737 15.3182L31.2371 18.2574L33.0028 17.3182ZM28.0937 28L28.0937 4.72727L24.0937 4.72727L24.0937 28L28.0937 28ZM26.0937 6.72727L36.1392 6.72727L36.1392 2.72727L26.0937 2.72727L26.0937 6.72727ZM36.1392 6.72727C37.6236 6.72727 38.8257 6.9968 39.8 7.46971L41.5466 3.8712C39.93 3.08653 38.1094 2.72727 36.1392 2.72727L36.1392 6.72727ZM39.8 7.46971C40.7649 7.93804 41.4762 8.58645 41.9878 9.42661L45.4042 7.34612C44.4765 5.82264 43.1726 4.66044 41.5466 3.8712L39.8 7.46971ZM41.9878 9.4266C42.4826 10.2391 42.7756 11.2802 42.7756 12.6364L46.7756 12.6364C46.7756 10.6894 46.3488 8.8973 45.4042 7.34612L41.9878 9.4266ZM42.7756 12.6364C42.7756 14.003 42.4738 15.0093 41.9843 15.7635L45.3396 17.9411C46.3349 16.4074 46.7756 14.6031 46.7756 12.6364L42.7756 12.6364ZM41.9792 15.7713C41.4728 16.5597 40.7567 17.1739 39.758 17.6109L41.3613 21.2755C43.0293 20.5457 44.3814 19.4327 45.3447 17.9332L41.9792 15.7713ZM39.7542 17.6126C38.7324 18.0621 37.4679 18.3182 35.9119 18.3182L35.9119 22.3182C37.9014 22.3182 39.7354 21.9909 41.3651 21.2738L39.7542 17.6126ZM35.9119 18.3182L29.9119 18.3182L29.9119 22.3182L35.9119 22.3182L35.9119 18.3182ZM31.9119 20.3182L31.9119 15.4091L27.9119 15.4091L27.9119 20.3182L31.9119 20.3182ZM29.9119 17.4091L34.6392 17.4091L34.6392 13.4091L29.9119 13.4091L29.9119 17.4091ZM34.6392 17.4091C35.5338 17.4091 36.4017 17.3009 37.194 17.0254L35.8799 13.2474C35.6268 13.3354 35.2294 13.4091 34.6392 13.4091L34.6392 17.4091ZM37.2096 17.0198C38.0808 16.7087 38.8526 16.172 39.4027 15.3691L36.103 13.1082C36.0925 13.1235 36.0536 13.1852 35.8643 13.2529L37.2096 17.0198ZM39.3885 15.3896C39.9784 14.5512 40.1847 13.578 40.1847 12.6364L36.1847 12.6364C36.1847 13.0129 36.103 13.1079 36.1172 13.0876L39.3885 15.3896ZM40.1847 12.6364C40.1847 11.6905 39.98 10.7165 39.3983 9.8745L36.1074 12.1482C36.1081 12.1492 36.1122 12.1552 36.1183 12.1689C36.1246 12.1829 36.134 12.2069 36.1438 12.2438C36.1638 12.3189 36.1847 12.4447 36.1847 12.6364L40.1847 12.6364ZM39.4215 9.90885C38.8811 9.0909 38.1145 8.53199 37.2333 8.20469L35.8406 11.9544C36.02 12.021 36.064 12.0833 36.0842 12.1139L39.4215 9.90885ZM37.2657 8.21706C36.4492 7.89753 35.555 7.77273 34.6392 7.77273L34.6392 11.7727C35.2083 11.7727 35.5793 11.8525 35.8081 11.942L37.2657 8.21706ZM34.6392 7.77273L32.4119 7.77273L32.4119 11.7727L34.6392 11.7727L34.6392 7.77273ZM30.4119 9.77273L30.4119 28L34.4119 28L34.4119 9.77273L30.4119 9.77273ZM32.4119 26L26.0937 26L26.0937 30L32.4119 30L32.4119 26ZM37.9738 18.2748L43.7919 28.9567L47.3047 27.0433L41.4865 16.3615L37.9738 18.2748ZM45.5483 26L38.6847 26L38.6847 30L45.5483 30L45.5483 26ZM40.4504 27.0608L34.7686 16.379L31.2371 18.2574L36.9189 28.9392L40.4504 27.0608ZM33.0028 19.3182L39.7301 19.3182L39.7301 15.3182L33.0028 15.3182L33.0028 19.3182ZM45.4205 4.72727L45.4205 2.72727L42.0804 2.72727L43.6574 5.67158L45.4205 4.72727ZM52.4659 4.72727L54.2684 3.86068L53.7235 2.72727L52.4659 2.72727L52.4659 4.72727ZM57.0114 14.1818L55.2089 15.0484L55.7538 16.1818L57.0114 16.1818L57.0114 14.1818ZM57.1932 14.1818L57.1932 16.1818L58.4508 16.1818L58.9957 15.0484L57.1932 14.1818ZM61.7386 4.72727L61.7386 2.72727L60.481 2.72727L59.9361 3.86068L61.7386 4.72727ZM68.7841 4.72727L70.5471 5.67158L72.1241 2.72727L68.7841 2.72727L68.7841 4.72727ZM60.2386 20.6818L58.4756 19.7375L58.2386 20.1799L58.2386 20.6818L60.2386 20.6818ZM60.2386 28L60.2386 30L62.2386 30L62.2386 28L60.2386 28ZM53.9659 28L51.9659 28L51.9659 30L53.9659 30L53.9659 28ZM53.9659 20.6818L55.9659 20.6818L55.9659 20.1799L55.7289 19.7375L53.9659 20.6818ZM45.4205 6.72727L52.4659 6.72727L52.4659 2.72727L45.4205 2.72727L45.4205 6.72727ZM50.6634 5.59386L55.2089 15.0484L58.8139 13.3152L54.2684 3.86068L50.6634 5.59386ZM57.0114 16.1818L57.1932 16.1818L57.1932 12.1818L57.0114 12.1818L57.0114 16.1818ZM58.9957 15.0484L63.5411 5.59386L59.9361 3.86068L55.3907 13.3152L58.9957 15.0484ZM61.7386 6.72727L68.7841 6.72727L68.7841 2.72727L61.7386 2.72727L61.7386 6.72727ZM67.0211 3.78297L58.4756 19.7375L62.0017 21.6261L70.5471 5.67158L67.0211 3.78297ZM58.2386 20.6818L58.2386 28L62.2386 28L62.2386 20.6818L58.2386 20.6818ZM60.2386 26L53.9659 26L53.9659 30L60.2386 30L60.2386 26ZM55.9659 28L55.9659 20.6818L51.9659 20.6818L51.9659 28L55.9659 28ZM55.7289 19.7375L47.1835 3.78297L43.6574 5.67158L52.2029 21.6261L55.7289 19.7375ZM70.8437 28L68.8437 28L68.8437 30L70.8437 30L70.8437 28ZM70.8437 4.72727L70.8437 2.72727L68.8437 2.72727L68.8437 4.72727L70.8437 4.72727ZM85.4233 5.75L84.4918 7.51984L84.4918 7.51984L85.4233 5.75ZM88.446 8.625L90.174 7.61792L90.174 7.61792L88.446 8.625ZM88.4119 17.2841L86.7035 16.2442L86.6988 16.252L88.4119 17.2841ZM85.3097 20.1023L84.4234 18.3094L84.4193 18.3114L85.3097 20.1023ZM74.6619 21.0909L72.6619 21.0909L72.6619 23.0909L74.6619 23.0909L74.6619 21.0909ZM74.6619 16.1818L74.6619 14.1818L72.6619 14.1818L72.6619 16.1818L74.6619 16.1818ZM81.2869 15.7955L82.171 17.5895L82.1814 17.5843L81.2869 15.7955ZM82.5028 14.6705L80.7831 13.6494L80.7772 13.6594L80.7714 13.6694L82.5028 14.6705ZM82.5028 11.25L80.7783 12.2628L80.7878 12.2791L80.7976 12.2951L82.5028 11.25ZM81.2869 10.1591L80.4029 11.9531L80.4184 11.9608L80.4341 11.9681L81.2869 10.1591ZM77.1619 9.77273L77.1619 7.77273L75.1619 7.77273L75.1619 9.77273L77.1619 9.77273ZM77.1619 28L77.1619 30L79.1619 30L79.1619 28L77.1619 28ZM72.8437 28L72.8437 4.72727L68.8437 4.72727L68.8437 28L72.8437 28ZM70.8437 6.72727L80.8892 6.72727L80.8892 2.72727L70.8437 2.72727L70.8437 6.72727ZM80.8892 6.72727C82.3502 6.72727 83.5311 7.01419 84.4918 7.51984L86.3548 3.98016C84.7246 3.12217 82.8827 2.72727 80.8892 2.72727L80.8892 6.72727ZM84.4918 7.51984C85.464 8.03153 86.1919 8.72928 86.7181 9.63208L90.174 7.61792C89.2607 6.05102 87.9735 4.8321 86.3548 3.98016L84.4918 7.51984ZM86.7181 9.63208C87.2335 10.5164 87.5256 11.6011 87.5256 12.9545L91.5256 12.9545C91.5256 11.0049 91.098 9.20331 90.174 7.61792L86.7181 9.63208ZM87.5256 12.9545C87.5256 14.3166 87.2253 15.387 86.7035 16.2442L90.1203 18.324C91.0834 16.7418 91.5256 14.9258 91.5256 12.9545L87.5256 12.9545ZM86.6988 16.252C86.1703 17.1293 85.4301 17.8117 84.4234 18.3094L86.1959 21.8952C87.8559 21.0746 89.1839 19.8783 90.125 18.3162L86.6988 16.252ZM84.4193 18.3114C83.4196 18.8084 82.1861 19.0909 80.6619 19.0909L80.6619 23.0909C82.6832 23.0909 84.5482 22.7144 86.2 21.8932L84.4193 18.3114ZM80.6619 19.0909L74.6619 19.0909L74.6619 23.0909L80.6619 23.0909L80.6619 19.0909ZM76.6619 21.0909L76.6619 16.1818L72.6619 16.1818L72.6619 21.0909L76.6619 21.0909ZM74.6619 18.1818L79.3892 18.1818L79.3892 14.1818L74.6619 14.1818L74.6619 18.1818ZM79.3892 18.1818C80.3567 18.1818 81.3084 18.0145 82.1709 17.5895L80.4029 14.0014C80.22 14.0916 79.9065 14.1818 79.3892 14.1818L79.3892 18.1818ZM82.1814 17.5843C83.0402 17.1549 83.7464 16.5155 84.2343 15.6715L80.7714 13.6694C80.6987 13.7951 80.5943 13.9057 80.3925 14.0066L82.1814 17.5843ZM84.2225 15.6915C84.7229 14.8489 84.9347 13.9116 84.9347 12.9545L80.9347 12.9545C80.9347 13.3157 80.8586 13.5224 80.7831 13.6494L84.2225 15.6915ZM84.9347 12.9545C84.9347 11.9968 84.7257 11.0494 84.208 10.2049L80.7976 12.2951C80.8558 12.39 80.9347 12.579 80.9347 12.9545L84.9347 12.9545ZM84.2274 10.2372C83.7309 9.39173 83.0114 8.76095 82.1398 8.35004L80.4341 11.9681C80.6231 12.0572 80.7142 12.1537 80.7783 12.2628L84.2274 10.2372ZM82.1709 8.36507C81.3084 7.94007 80.3567 7.77273 79.3892 7.77273L79.3892 11.7727C79.9065 11.7727 80.22 11.863 80.4029 11.9531L82.1709 8.36507ZM79.3892 7.77273L77.1619 7.77273L77.1619 11.7727L79.3892 11.7727L79.3892 7.77273ZM75.1619 9.77273L75.1619 28L79.1619 28L79.1619 9.77273L75.1619 9.77273ZM77.1619 26L70.8437 26L70.8437 30L77.1619 30L77.1619 26ZM91.2074 9.81818L89.2074 9.81818L89.2074 11.8182L91.2074 11.8182L91.2074 9.81818ZM91.2074 4.72727L91.2074 2.72727L89.2074 2.72727L89.2074 4.72727L91.2074 4.72727ZM111.435 4.72727L113.435 4.72727L113.435 2.72727L111.435 2.72727L111.435 4.72727ZM111.435 9.81818L111.435 11.8182L113.435 11.8182L113.435 9.81818L111.435 9.81818ZM104.435 9.81818L104.435 7.81818L102.435 7.81818L102.435 9.81818L104.435 9.81818ZM104.435 28L104.435 30L106.435 30L106.435 28L104.435 28ZM98.2074 28L96.2074 28L96.2074 30L98.2074 30L98.2074 28ZM98.2074 9.81818L100.207 9.81818L100.207 7.81818L98.2074 7.81818L98.2074 9.81818ZM93.2074 9.81818L93.2074 4.72727L89.2074 4.72727L89.2074 9.81818L93.2074 9.81818ZM91.2074 6.72727L111.435 6.72727L111.435 2.72727L91.2074 2.72727L91.2074 6.72727ZM109.435 4.72727L109.435 9.81818L113.435 9.81818L113.435 4.72727L109.435 4.72727ZM111.435 7.81818L104.435 7.81818L104.435 11.8182L111.435 11.8182L111.435 7.81818ZM102.435 9.81818L102.435 28L106.435 28L106.435 9.81818L102.435 9.81818ZM104.435 26L98.2074 26L98.2074 30L104.435 30L104.435 26ZM100.207 28L100.207 9.81818L96.2074 9.81818L96.2074 28L100.207 28ZM98.2074 7.81818L91.2074 7.81818L91.2074 11.8182L98.2074 11.8182L98.2074 7.81818ZM133.753 22.9205L135.492 23.9087L135.493 23.9055L133.753 22.9205ZM129.673 26.9545L130.611 28.721L130.617 28.7177L129.673 26.9545ZM118.196 26.9432L117.243 28.7014L117.252 28.7064L118.196 26.9432ZM114.128 22.8977L112.384 23.8772L112.389 23.886L114.128 22.8977ZM114.128 9.81818L112.387 8.83309L112.386 8.83554L114.128 9.81818ZM118.196 5.78409L119.137 7.5488L119.14 7.54728L118.196 5.78409ZM129.673 5.78409L128.729 7.54729L128.735 7.55052L129.673 5.78409ZM133.753 9.81818L132.012 10.8033L132.014 10.8065L133.753 9.81818ZM128.207 12.8409L126.337 13.548L126.34 13.5569L126.343 13.5658L128.207 12.8409ZM126.582 10.6591L125.433 12.2959L125.443 12.3029L125.453 12.3097L126.582 10.6591ZM121.298 10.6591L122.436 12.3041L122.439 12.3016L121.298 10.6591ZM119.673 12.8409L117.807 12.121L117.804 12.1289L119.673 12.8409ZM119.673 19.8977L117.802 20.6048L117.806 20.6137L117.809 20.6226L119.673 19.8977ZM121.298 22.0795L120.149 23.7164L120.159 23.7233L120.169 23.7302L121.298 22.0795ZM126.582 22.0795L127.72 23.7246L127.724 23.7221L126.582 22.0795ZM128.207 19.8977L126.341 19.1778L126.338 19.1857L128.207 19.8977ZM133.264 16.3636C133.264 18.6997 132.81 20.5255 132.012 21.9354L135.493 23.9055C136.711 21.7549 137.264 19.2094 137.264 16.3636L133.264 16.3636ZM132.014 21.9322C131.183 23.394 130.092 24.4619 128.729 25.1914L130.617 28.7177C132.679 27.6138 134.307 25.9924 135.492 23.9087L132.014 21.9322ZM128.735 25.1881C127.337 25.9308 125.754 26.3182 123.946 26.3182L123.946 30.3182C126.35 30.3182 128.586 29.7965 130.611 28.721L128.735 25.1881ZM123.946 26.3182C122.123 26.3182 120.536 25.9272 119.14 25.18L117.252 28.7064C119.281 29.7925 121.527 30.3182 123.946 30.3182L123.946 26.3182ZM119.149 25.185C117.791 24.4483 116.699 23.3748 115.867 21.9095L112.389 23.886C113.571 25.9662 115.192 27.5895 117.243 28.7014L119.149 25.185ZM115.872 21.9183C115.078 20.5055 114.628 18.6845 114.628 16.3636L110.628 16.3636C110.628 19.1943 111.178 21.7293 112.384 23.8772L115.872 21.9183ZM114.628 16.3636C114.628 14.0249 115.079 12.2025 115.87 10.8008L112.386 8.83554C111.177 10.9793 110.628 13.5206 110.628 16.3636L114.628 16.3636ZM115.868 10.8033C116.7 9.33307 117.788 8.26846 119.137 7.5488L117.255 4.01938C115.195 5.1179 113.57 6.74269 112.387 8.83309L115.868 10.8033ZM119.14 7.54728C120.536 6.80011 122.123 6.40909 123.946 6.40909L123.946 2.40909C121.527 2.40909 119.281 2.93473 117.252 4.0209L119.14 7.54728ZM123.946 6.40909C125.751 6.40909 127.332 6.799 128.729 7.54728L130.617 4.0209C128.591 2.93585 126.353 2.40909 123.946 2.40909L123.946 6.40909ZM128.735 7.55052C130.092 8.27086 131.181 9.33533 132.012 10.8033L135.493 8.83309C134.309 6.74042 132.679 5.11551 130.611 4.01766L128.735 7.55052ZM132.014 10.8065C132.81 12.2069 133.264 14.0272 133.264 16.3636L137.264 16.3636C137.264 13.5183 136.711 10.9749 135.492 8.82991L132.014 10.8065ZM130.764 16.3636C130.764 14.8055 130.559 13.3686 130.071 12.116L126.343 13.5658C126.599 14.2223 126.764 15.1339 126.764 16.3636L130.764 16.3636ZM130.078 12.1338C129.596 10.8592 128.827 9.77128 127.712 9.00848L125.453 12.3097C125.778 12.5317 126.091 12.8984 126.337 13.548L130.078 12.1338ZM127.732 9.02226C126.62 8.24157 125.318 7.90909 123.946 7.90909L123.946 11.9091C124.665 11.9091 125.121 12.0766 125.433 12.2959L127.732 9.02226ZM123.946 7.90909C122.573 7.90909 121.272 8.24182 120.157 9.01658L122.439 12.3016C122.764 12.0764 123.228 11.9091 123.946 11.9091L123.946 7.90909ZM120.161 9.01408C119.06 9.77554 118.295 10.8573 117.807 12.121L121.539 13.5608C121.794 12.9002 122.113 12.5275 122.436 12.3041L120.161 9.01408ZM117.804 12.1289C117.329 13.3772 117.128 14.8092 117.128 16.3636L121.128 16.3636C121.128 15.1302 121.291 14.2137 121.542 13.5529L117.804 12.1289ZM117.128 16.3636C117.128 17.9188 117.329 19.3522 117.802 20.6048L121.544 19.1906C121.29 18.5191 121.128 17.5963 121.128 16.3636L117.128 16.3636ZM117.809 20.6226C118.298 21.8785 119.06 22.9518 120.149 23.7164L122.448 20.4427C122.112 20.2073 121.791 19.826 121.537 19.1728L117.809 20.6226ZM120.169 23.7302C121.283 24.4923 122.579 24.8182 123.946 24.8182L123.946 20.8182C123.222 20.8182 122.753 20.6517 122.428 20.4289L120.169 23.7302ZM123.946 24.8182C125.312 24.8182 126.609 24.4925 127.72 23.7246L125.445 20.4345C125.131 20.6514 124.671 20.8182 123.946 20.8182L123.946 24.8182ZM127.724 23.7221C128.826 22.9561 129.594 21.8767 130.076 20.6097L126.338 19.1857C126.094 19.8279 125.778 20.203 125.441 20.437L127.724 23.7221ZM130.073 20.6177C130.558 19.3607 130.764 17.9226 130.764 16.3636L126.764 16.3636C126.764 17.5926 126.599 18.5105 126.341 19.1778L130.073 20.6177ZM143.682 17.5909L141.682 17.5909L141.682 19.5909L143.682 19.5909L143.682 17.5909ZM143.682 9.20454L143.682 7.20454L141.682 7.20454L141.682 9.20454L143.682 9.20454ZM149.375 9.55682L148.481 11.3457L148.481 11.3457L149.375 9.55682ZM150.443 10.5455L148.707 11.5377L148.713 11.5493L148.72 11.5608L150.443 10.5455ZM150.432 13.5341L152.124 14.5997L152.124 14.5997L150.432 13.5341ZM149.33 14.4773L150.142 16.3049L150.154 16.2995L150.166 16.294L149.33 14.4773ZM144.977 14.7955L142.977 14.7955L142.977 16.7955L144.977 16.7955L144.977 14.7955ZM144.977 13.0682L144.977 11.0682L142.977 11.0682L142.977 13.0682L144.977 13.0682ZM148.057 12.8068L149.411 14.2787L149.411 14.2787L148.057 12.8068ZM148.057 11.25L146.672 12.6928L146.687 12.7075L146.703 12.7219L148.057 11.25ZM146.091 10.9773L146.091 8.97727L144.091 8.97727L144.091 10.9773L146.091 10.9773ZM146.091 17.5909L146.091 19.5909L148.091 19.5909L148.091 17.5909L146.091 17.5909ZM149.227 13.7727L151.037 12.9217L150.497 11.7727L149.227 11.7727L149.227 13.7727ZM151.023 17.5909L151.023 19.5909L154.173 19.5909L152.833 16.7398L151.023 17.5909ZM148.386 17.5909L146.544 18.3695L147.06 19.5909L148.386 19.5909L148.386 17.5909ZM146.773 13.7727L146.773 11.7727L143.756 11.7727L144.93 14.5513L146.773 13.7727ZM143.511 21.8864L144.298 20.0474L144.298 20.0474L143.511 21.8864ZM138.659 17.0341L136.82 17.8204L136.82 17.8204L138.659 17.0341ZM138.659 9.96591L136.82 9.1796L136.82 9.1796L138.659 9.96591ZM143.511 5.11364L144.298 6.95258L144.298 6.95258L143.511 5.11364ZM153.477 7.06818L154.891 5.65397L154.891 5.65397L153.477 7.06818ZM155.432 9.96591L153.593 10.7522L153.593 10.7522L155.432 9.96591ZM155.432 17.0341L153.593 16.2478L153.593 16.2478L155.432 17.0341ZM153.477 19.9318L154.891 21.346L154.891 21.346L153.477 19.9318ZM150.341 19.1705L151.36 20.8913L151.364 20.8889L150.341 19.1705ZM152.705 16.7955L150.986 15.7722L150.98 15.782L152.705 16.7955ZM152.705 10.2045L150.98 11.218L150.986 11.2277L152.705 10.2045ZM150.341 7.84091L149.318 9.55938L149.327 9.56512L150.341 7.84091ZM143.75 7.84091L144.763 9.56514L144.773 9.55936L143.75 7.84091ZM141.375 10.2045L139.657 9.18133L139.651 9.19108L141.375 10.2045ZM141.375 16.7955L139.651 17.8089L139.655 17.8167L139.66 17.8244L141.375 16.7955ZM143.75 19.1591L142.727 20.8775L142.727 20.8775L143.75 19.1591ZM145.682 17.5909L145.682 9.20454L141.682 9.20454L141.682 17.5909L145.682 17.5909ZM143.682 11.2045L147.682 11.2045L147.682 7.20454L143.682 7.20454L143.682 11.2045ZM147.682 11.2045C148.108 11.2045 148.35 11.2805 148.481 11.3457L150.269 7.76797C149.46 7.3634 148.574 7.20454 147.682 7.20454L147.682 11.2045ZM148.481 11.3457C148.625 11.4178 148.675 11.4822 148.707 11.5377L152.18 9.55318C151.727 8.7602 151.065 8.16556 150.269 7.76796L148.481 11.3457ZM148.72 11.5608C148.76 11.6287 148.818 11.7657 148.818 12.0455L152.818 12.0455C152.818 11.1737 152.626 10.3107 152.166 9.53007L148.72 11.5608ZM148.818 12.0455C148.818 12.3302 148.758 12.439 148.739 12.4685L152.124 14.5997C152.621 13.811 152.818 12.9274 152.818 12.0455L148.818 12.0455ZM148.739 12.4685C148.706 12.521 148.65 12.5882 148.493 12.6605L150.166 16.294C150.963 15.9269 151.642 15.3654 152.124 14.5997L148.739 12.4685ZM148.517 12.6496C148.356 12.7213 148.075 12.7955 147.614 12.7955L147.614 16.7955C148.486 16.7955 149.349 16.6575 150.142 16.3049L148.517 12.6496ZM147.614 12.7955L144.977 12.7955L144.977 16.7955L147.614 16.7955L147.614 12.7955ZM146.977 14.7955L146.977 13.0682L142.977 13.0682L142.977 14.7955L146.977 14.7955ZM144.977 15.0682L147.227 15.0682L147.227 11.0682L144.977 11.0682L144.977 15.0682ZM147.227 15.0682C147.886 15.0682 148.724 14.9106 149.411 14.2787L146.703 11.335C147.011 11.0515 147.296 11.0682 147.227 11.0682L147.227 15.0682ZM149.411 14.2787C150.125 13.6217 150.341 12.7635 150.341 12.0455L146.341 12.0455C146.341 12.0266 146.343 11.9283 146.396 11.7866C146.453 11.6346 146.554 11.4722 146.703 11.335L149.411 14.2787ZM150.341 12.0455C150.341 11.3516 150.151 10.4588 149.411 9.77814L146.703 12.7219C146.537 12.5693 146.438 12.3957 146.386 12.2522C146.339 12.1203 146.341 12.0387 146.341 12.0455L150.341 12.0455ZM149.442 9.80723C148.756 9.14923 147.906 8.97727 147.227 8.97727L147.227 12.9773C147.276 12.9773 146.978 12.9871 146.672 12.6928L149.442 9.80723ZM147.227 8.97727L146.091 8.97727L146.091 12.9773L147.227 12.9773L147.227 8.97727ZM144.091 10.9773L144.091 17.5909L148.091 17.5909L148.091 10.9773L144.091 10.9773ZM146.091 15.5909L143.682 15.5909L143.682 19.5909L146.091 19.5909L146.091 15.5909ZM147.417 14.6238L149.213 18.442L152.833 16.7398L151.037 12.9217L147.417 14.6238ZM151.023 15.5909L148.386 15.5909L148.386 19.5909L151.023 19.5909L151.023 15.5909ZM150.229 16.8123L148.615 12.9942L144.93 14.5513L146.544 18.3695L150.229 16.8123ZM146.773 15.7727L149.227 15.7727L149.227 11.7727L146.773 11.7727L146.773 15.7727ZM147.045 20.5909C146.044 20.5909 145.135 20.4053 144.298 20.0474L142.725 23.7253C144.085 24.3068 145.532 24.5909 147.045 24.5909L147.045 20.5909ZM144.298 20.0474C143.43 19.6766 142.678 19.1681 142.028 18.5176L139.199 21.346C140.216 22.3622 141.395 23.1568 142.725 23.7253L144.298 20.0474ZM142.028 18.5176C141.377 17.8671 140.869 17.1151 140.498 16.2478L136.82 17.8204C137.389 19.1501 138.183 20.3299 139.199 21.346L142.028 18.5176ZM140.498 16.2478C140.14 15.4108 139.955 14.5018 139.955 13.5L135.955 13.5C135.955 15.0134 136.239 16.4604 136.82 17.8204L140.498 16.2478ZM139.955 13.5C139.955 12.4982 140.14 11.5892 140.498 10.7522L136.82 9.1796C136.239 10.5396 135.955 11.9866 135.955 13.5L139.955 13.5ZM140.498 10.7522C140.869 9.8849 141.377 9.1329 142.028 8.4824L139.199 5.65397C138.183 6.67013 137.389 7.84995 136.82 9.1796L140.498 10.7522ZM142.028 8.4824C142.678 7.83189 143.43 7.32344 144.298 6.95258L142.725 3.27469C141.395 3.84323 140.216 4.63781 139.199 5.65397L142.028 8.4824ZM144.298 6.95258C145.135 6.5947 146.044 6.40909 147.045 6.40909L147.045 2.40909C145.532 2.40909 144.085 2.69318 142.725 3.27469L144.298 6.95258ZM147.045 6.40909C148.047 6.40909 148.956 6.5947 149.793 6.95258L151.366 3.27469C150.006 2.69318 148.559 2.40909 147.045 2.40909L147.045 6.40909ZM149.793 6.95258C150.661 7.32344 151.413 7.83189 152.063 8.4824L154.891 5.65397C153.875 4.63781 152.696 3.84323 151.366 3.27469L149.793 6.95258ZM152.063 8.4824C152.714 9.1329 153.222 9.8849 153.593 10.7522L157.271 9.1796C156.702 7.84995 155.908 6.67013 154.891 5.65397L152.063 8.4824ZM153.593 10.7522C153.951 11.5892 154.136 12.4982 154.136 13.5L158.136 13.5C158.136 11.9866 157.852 10.5396 157.271 9.1796L153.593 10.7522ZM154.136 13.5C154.136 14.5018 153.951 15.4108 153.593 16.2478L157.271 17.8204C157.852 16.4604 158.136 15.0134 158.136 13.5L154.136 13.5ZM153.593 16.2478C153.222 17.1151 152.714 17.8671 152.063 18.5176L154.891 21.346C155.908 20.3299 156.702 19.1501 157.271 17.8204L153.593 16.2478ZM152.063 18.5176C151.413 19.1681 150.661 19.6766 149.793 20.0474L151.366 23.7253C152.696 23.1568 153.875 22.3622 154.891 21.346L152.063 18.5176ZM149.793 20.0474C148.956 20.4053 148.047 20.5909 147.045 20.5909L147.045 24.5909C148.559 24.5909 150.006 24.3068 151.366 23.7253L149.793 20.0474ZM147.045 22.0455C148.594 22.0455 150.048 21.6682 151.36 20.8913L149.322 17.4497C148.664 17.8393 147.921 18.0455 147.045 18.0455L147.045 22.0455ZM151.364 20.8889C152.645 20.1264 153.674 19.0926 154.429 17.8089L150.98 15.782C150.568 16.4831 150.022 17.0327 149.318 17.452L151.364 20.8889ZM154.423 17.8187C155.206 16.5032 155.591 15.0486 155.591 13.5L151.591 13.5C151.591 14.3605 151.385 15.1029 150.986 15.7723L154.423 17.8187ZM155.591 13.5C155.591 11.9514 155.206 10.4968 154.423 9.18135L150.986 11.2277C151.385 11.8971 151.591 12.6395 151.591 13.5L155.591 13.5ZM154.429 9.19108C153.673 7.9051 152.64 6.87258 151.354 6.1167L149.327 9.56512C150.026 9.9759 150.57 10.5191 150.98 11.218L154.429 9.19108ZM151.364 6.12246C150.049 5.33919 148.594 4.95454 147.045 4.95454L147.045 8.95454C147.906 8.95454 148.648 9.16081 149.318 9.55936L151.364 6.12246ZM147.045 4.95454C145.497 4.95454 144.042 5.33919 142.727 6.12246L144.773 9.55936C145.443 9.16081 146.185 8.95454 147.045 8.95454L147.045 4.95454ZM142.737 6.1167C141.453 6.87124 140.419 7.90066 139.657 9.18135L143.093 11.2277C143.513 10.5236 144.062 9.97724 144.763 9.56512L142.737 6.1167ZM139.651 9.19108C138.878 10.5052 138.5 11.9563 138.5 13.5L142.5 13.5C142.5 12.6346 142.705 11.8887 143.099 11.218L139.651 9.19108ZM138.5 13.5C138.5 15.0437 138.878 16.4948 139.651 17.8089L143.099 15.782C142.705 15.1113 142.5 14.3654 142.5 13.5L138.5 13.5ZM139.66 17.8244C140.422 19.0944 141.452 20.1185 142.727 20.8775L144.773 17.4406C144.063 17.0178 143.51 16.4662 143.09 15.7665L139.66 17.8244ZM142.727 20.8775C144.042 21.6608 145.497 22.0455 147.045 22.0455L147.045 18.0455C146.185 18.0455 145.443 17.8392 144.773 17.4406L142.727 20.8775Z"
      fill="inherit" mask="url(#path-1-outside-1_2582_3191)" />
  </g>
  <defs>
    <clipPath id="clip0_2582_3191">
      <rect width="158" height="32" fill="white" />
    </clipPath>
  </defs>
</svg>